# xmcd CD database file
#
# Track frame offsets:
#	150
#	13585
#	28747
#	43772
#	57075
#	76107
#	90770
#	108717
#	127090
#	140425
#	154872
#	166637
#	182537
#	196367
#	213560
#
# Disc length: 3002 seconds
#
# Revision: 1
# Processed by: cddbd v1.4PL0 Copyright (c) Steve Scherf et al.
# Submitted via: CDex 1.50beta10
#
DISCID=bf0bb80f
DTITLE=Bulletproof - Gotcha!!
DYEAR=1999
DGENRE=Country
TTITLE0=Big Guitar
TTITLE1=I Feel Lucky
TTITLE2=Honey I'm Home
TTITLE3=Don't Rock The Jukebox
TTITLE4=Can't Run From Yourself
TTITLE5=Come On And Talk To Me
TTITLE6=Tender When I Wanna Be
TTITLE7=Chattahoochee
TTITLE8=Highway 40 Blues
TTITLE9=Thinking About You
TTITLE10=Be My Baby Tonight
TTITLE11=Mercury Blues
TTITLE12=Amarillo
TTITLE13=Trickrider
TTITLE14=Hellecast Theme
EXTD=YEAR: 1999
EXTT0=
EXTT1=
EXTT2=
EXTT3=
EXTT4=
EXTT5=
EXTT6=
EXTT7=
EXTT8=
EXTT9=
EXTT10=
EXTT11=
EXTT12=
EXTT13=
EXTT14=
PLAYORDER=
